<svg width="250" height="300" viewBox="0 0 250 300" fill="none" xmlns="http://www.w3.org/2000/svg">
<path d="M243.792 201C229.119 220.841 206.317 236.249 179.06 244.738C151.803 253.229 121.679 254.307 93.5417 247.8C65.4043 241.292 40.8922 227.578 23.9554 208.868C7.01857 190.159 -1.35671 167.541 0.17913 144.662C1.71497 121.782 13.0725 99.9722 32.4215 82.7467C51.7706 65.5212 77.9844 53.8833 106.839 49.708C135.693 45.5328 165.508 49.0636 191.479 59.7312C217.45 70.399 238.064 87.5825 250 108.513L232.098 114.736C221.951 96.9451 204.428 82.3392 182.354 73.2715C160.279 64.204 134.936 61.2029 110.41 64.7518C85.8839 68.3008 63.6022 78.193 47.1554 92.8347C30.7087 107.476 21.0549 126.015 19.7494 145.462C18.4438 164.91 25.5629 184.135 39.9592 200.038C54.3555 215.942 75.1906 227.599 99.1075 233.129C123.024 238.661 148.63 237.744 171.798 230.529C194.966 223.311 214.347 210.216 226.82 193.351L243.792 201Z" fill="#FFE194"/>
<path d="M139.357 17.1429H121.938V137.143H139.357V17.1429Z" fill="#E8F6EF"/>
<path d="M69.6787 9.72748e-05V17.1429L191.616 17.1429V9.72748e-05L69.6787 9.72748e-05Z" fill="#E8F6EF"/>
<path d="M139.357 162.857H121.938V282.857H139.357V162.857Z" fill="#E8F6EF"/>
<path d="M69.6787 282.857V300H191.616V282.857H69.6787Z" fill="#E8F6EF"/>
</svg>
